<svg xmlns="http://www.w3.org/2000/svg" viewBox="0 0 40.096 30"><g id="レイヤー_2" data-name="レイヤー 2"><g id="レイヤー_1-2" data-name="レイヤー 1"><path d="M0,12.583A5.413,5.413,0,0,1,5.42,7.308a5.12,5.12,0,0,1,5.42,5.275,5.319,5.319,0,0,1-5.275,5.275,4.732,4.732,0,0,1-2.855-.871v5.662H0Zm8.13,0A2.631,2.631,0,0,0,5.42,9.824a2.658,2.658,0,0,0-2.71,2.759,2.686,2.686,0,0,0,2.71,2.758A2.658,2.658,0,0,0,8.13,12.583Z" style="fill:#62626e"/><path d="M21.439,12.583a5.414,5.414,0,0,1,5.42-5.275,5.121,5.121,0,0,1,5.421,5.275,5.415,5.415,0,0,1-5.421,5.275A5.121,5.121,0,0,1,21.439,12.583Zm8.131,0a2.631,2.631,0,0,0-2.711-2.759,2.659,2.659,0,0,0-2.71,2.759,2.687,2.687,0,0,0,2.71,2.758A2.658,2.658,0,0,0,29.57,12.583Z" style="fill:#62626e"/><path d="M35.91,10.066H34.555V7.55H35.91V3.775A3.635,3.635,0,0,1,39.685,0H40.1V2.517h-.218A1.194,1.194,0,0,0,38.62,3.775V7.55h1.355v2.516H38.62v7.55H35.91Z" style="fill:#62626e"/><path d="M16.188,30a5.414,5.414,0,0,1-5.275-5.42,5,5,0,0,1,1.5-3.775L14.2,22.6a2.9,2.9,0,0,0-.774,1.984,2.657,2.657,0,0,0,2.758,2.71,2.687,2.687,0,0,0,2.759-2.71,2.832,2.832,0,0,0-.823-1.936l1.743-1.79a5.159,5.159,0,0,1,1.6,3.726A5.12,5.12,0,0,1,16.188,30Z" style="fill:#62626e"/></g></g></svg>